# This file uses centimeters as units for non-parametric coordinates.

mtllib can_04.mtl
g default
v 0.079749 -0.006183 -0.057941
v 0.030461 -0.006183 -0.093750
v -0.030461 -0.006183 -0.093750
v -0.079749 -0.006183 -0.057941
v -0.098575 -0.006183 0.000000
v -0.079749 -0.006183 0.057941
v -0.030461 -0.006183 0.093750
v 0.030461 -0.006183 0.093750
v 0.079749 -0.006183 0.057941
v 0.098575 -0.006183 -0.000000
v 0.079749 0.277445 -0.057941
v 0.030461 0.277445 -0.093750
v -0.030461 0.277445 -0.093750
v -0.079749 0.277445 -0.057941
v -0.098575 0.277445 0.000000
v -0.079749 0.277445 0.057941
v -0.030461 0.277445 0.093750
v 0.030461 0.277445 0.093750
v 0.079749 0.277445 0.057941
v 0.098575 0.277445 0.000000
v 0.000000 -0.000000 0.000000
v 0.000000 0.271262 0.000000
v 0.076145 0.082143 -0.065351
v 0.029085 0.082143 -0.099543
v -0.029085 0.082143 -0.099543
v -0.076145 0.082143 -0.065351
v -0.094120 0.082143 -0.010029
v -0.076145 0.082143 0.045293
v -0.029085 0.082143 0.079485
v 0.029085 0.082143 0.079485
v 0.076145 0.082143 0.045293
v 0.094120 0.082143 -0.010029
v 0.076681 0.197284 -0.045706
v 0.094783 0.197284 0.010006
v 0.076681 0.197284 0.065718
v 0.029289 0.197284 0.100150
v -0.029289 0.197284 0.100150
v -0.076681 0.197284 0.065718
v -0.094783 0.197284 0.010006
v -0.076681 0.197284 -0.045705
v -0.029289 0.197284 -0.080137
v 0.029289 0.197284 -0.080137
v 0.076413 0.139714 -0.055517
v 0.029187 0.139714 -0.089829
v -0.029187 0.139714 -0.089829
v -0.076413 0.139714 -0.055517
v -0.094451 0.139714 0.000000
v -0.076413 0.139714 0.055517
v -0.029187 0.139714 0.089829
v 0.029187 0.139714 0.089829
v 0.076413 0.139714 0.055517
v 0.094451 0.139714 0.000000
vt 0.963968 0.831002
vt 0.913857 0.794590
vt 0.851915 0.794587
vt 0.801800 0.830994
vt 0.782656 0.889904
vt 0.801794 0.948816
vt 0.851906 0.985228
vt 0.913848 0.985231
vt 0.963963 0.948824
vt 0.983107 0.889914
vt 0.014164 0.331051
vt 0.076012 0.330989
vt 0.138258 0.330650
vt 0.199791 0.331111
vt 0.260300 0.330868
vt 0.320067 0.329769
vt 0.379726 0.328258
vt 0.439758 0.329141
vt 0.499745 0.331059
vt 0.560134 0.333434
vt 0.621399 0.336233
vt 0.017289 0.617528
vt 0.077697 0.621234
vt 0.137605 0.622562
vt 0.197037 0.621264
vt 0.256416 0.620351
vt 0.316451 0.620451
vt 0.377412 0.621454
vt 0.438977 0.621540
vt 0.500225 0.621265
vt 0.561158 0.621105
vt 0.622704 0.619555
vt 0.831091 0.662769
vt 0.780983 0.626354
vt 0.719040 0.626347
vt 0.668923 0.662750
vt 0.649774 0.721659
vt 0.668909 0.780572
vt 0.719018 0.816987
vt 0.780960 0.816995
vt 0.831077 0.780591
vt 0.850226 0.721682
vt 0.882882 0.889909
vt 0.750000 0.721671
vt 0.625066 0.424218
vt 0.021605 0.421379
vt 0.079719 0.419858
vt 0.136606 0.419982
vt 0.193937 0.420285
vt 0.252880 0.420800
vt 0.314026 0.421076
vt 0.376935 0.421301
vt 0.440379 0.420901
vt 0.503492 0.421697
vt 0.565122 0.422539
vt 0.608968 0.538204
vt 0.017467 0.537595
vt 0.550100 0.539268
vt 0.492382 0.540027
vt 0.435915 0.540695
vt 0.379906 0.539984
vt 0.323130 0.539418
vt 0.264561 0.538735
vt 0.203714 0.538398
vt 0.141233 0.538203
vt 0.078672 0.538514
vt 0.615928 0.480633
vt 0.020638 0.480656
vt 0.079531 0.478725
vt 0.139247 0.478508
vt 0.199026 0.478971
vt 0.258791 0.479753
vt 0.318531 0.480571
vt 0.378265 0.481157
vt 0.437953 0.481302
vt 0.497400 0.480973
vt 0.556697 0.480428
vn 0.805264 0.096078 -0.585080
vn 0.305142 0.157742 -0.939152
vn 0.316872 -0.031780 -0.947936
vn 0.821541 -0.031707 -0.569267
vn -0.305142 0.157742 -0.939152
vn -0.316872 -0.031780 -0.947936
vn -0.805264 0.096078 -0.585080
vn -0.821541 -0.031707 -0.569267
vn -0.999983 -0.005756 -0.000022
vn -0.999127 -0.030870 0.028131
vn -0.804347 -0.107406 0.584371
vn -0.794844 -0.029111 0.606115
vn -0.304590 -0.168781 0.937410
vn -0.300388 -0.027568 0.953419
vn 0.304590 -0.168781 0.937410
vn 0.300388 -0.027568 0.953419
vn 0.804347 -0.107406 0.584371
vn 0.794845 -0.029111 0.606114
vn 0.999983 -0.005756 -0.000022
vn 0.999127 -0.030870 0.028131
vn -0.019346 -0.998038 0.059541
vn -0.050649 -0.998038 0.036798
vn -0.000000 -1.000000 -0.000000
vn 0.019346 -0.998038 0.059541
vn 0.050649 -0.998038 0.036798
vn 0.062605 -0.998038 -0.000000
vn 0.050649 -0.998038 -0.036798
vn 0.019346 -0.998038 -0.059541
vn -0.019346 -0.998038 -0.059541
vn -0.050649 -0.998038 -0.036798
vn -0.062605 -0.998038 0.000000
vn -0.050649 0.998038 0.036799
vn -0.019346 0.998038 0.059541
vn -0.000000 1.000000 0.000000
vn 0.019346 0.998038 0.059541
vn 0.050649 0.998038 0.036798
vn 0.062605 0.998038 -0.000000
vn 0.050649 0.998038 -0.036798
vn 0.019346 0.998038 -0.059541
vn -0.019346 0.998038 -0.059541
vn -0.050649 0.998038 -0.036798
vn -0.062605 0.998038 0.000000
vn 0.819353 -0.014650 -0.573103
vn 0.314972 -0.057217 -0.947375
vn 0.300876 0.026163 -0.953304
vn 0.795658 0.027738 -0.605111
vn -0.314972 -0.057217 -0.947375
vn -0.300876 0.026163 -0.953304
vn -0.819353 -0.014650 -0.573103
vn -0.795658 0.027738 -0.605111
vn -0.998349 0.052896 0.022397
vn -0.999214 0.029403 -0.026575
vn -0.792533 0.118009 0.598302
vn -0.820886 0.029986 0.570305
vn -0.298579 0.156706 0.941432
vn -0.316454 0.029834 0.948139
vn 0.298580 0.156706 0.941432
vn 0.316454 0.029834 0.948138
vn 0.792534 0.118009 0.598301
vn 0.820886 0.029985 0.570305
vn 0.998349 0.052896 0.022397
vn 0.999214 0.029403 -0.026575
vn 0.791084 -0.121778 -0.599464
vn 0.998431 -0.050305 -0.024590
vn 0.820194 0.024063 0.571580
vn 0.315309 0.070940 0.946334
vn -0.315309 0.070940 0.946334
vn -0.820194 0.024063 0.571580
vn -0.998431 -0.050305 -0.024590
vn -0.791084 -0.121778 -0.599464
vn -0.297558 -0.164068 -0.940500
vn 0.297558 -0.164068 -0.940500
s 1
g can_fina_04 cans
usemtl initialShadingGroup
f 43/68/1 44/69/2 42/66/3 33/57/4
f 44/69/2 45/70/5 41/65/6 42/66/3
f 45/70/5 46/71/7 40/64/8 41/65/6
f 46/71/7 47/72/9 39/63/10 40/64/8
f 47/72/9 48/73/11 38/62/12 39/63/10
f 48/73/11 49/74/13 37/61/14 38/62/12
f 49/74/13 50/75/15 36/60/16 37/61/14
f 50/75/15 51/76/17 35/59/18 36/60/16
f 51/76/17 52/77/19 34/58/20 35/59/18
f 52/77/19 43/67/1 33/56/4 34/58/20
s 2
f 2/2/21 1/1/22 21/43/23
f 3/3/24 2/2/21 21/43/23
f 4/4/25 3/3/24 21/43/23
f 5/5/26 4/4/25 21/43/23
f 6/6/27 5/5/26 21/43/23
f 7/7/28 6/6/27 21/43/23
f 8/8/29 7/7/28 21/43/23
f 9/9/30 8/8/29 21/43/23
f 10/10/31 9/9/30 21/43/23
f 1/1/22 10/10/31 21/43/23
s 3
f 11/41/32 12/40/33 22/44/34
f 12/40/33 13/39/35 22/44/34
f 13/39/35 14/38/36 22/44/34
f 14/38/36 15/37/37 22/44/34
f 15/37/37 16/36/38 22/44/34
f 16/36/38 17/35/39 22/44/34
f 17/35/39 18/34/40 22/44/34
f 18/34/40 19/33/41 22/44/34
f 19/33/41 20/42/42 22/44/34
f 20/42/42 11/41/32 22/44/34
s 1
f 1/11/43 2/12/44 24/47/45 23/46/46
f 2/12/44 3/13/47 25/48/48 24/47/45
f 3/13/47 4/14/49 26/49/50 25/48/48
f 4/14/49 5/15/51 27/50/52 26/49/50
f 5/15/51 6/16/53 28/51/54 27/50/52
f 6/16/53 7/17/55 29/52/56 28/51/54
f 7/17/55 8/18/57 30/53/58 29/52/56
f 8/18/57 9/19/59 31/54/60 30/53/58
f 9/19/59 10/20/61 32/55/62 31/54/60
f 10/20/61 1/21/43 23/45/46 32/55/62
f 34/58/20 33/56/4 11/32/63 20/31/64
f 35/59/18 34/58/20 20/31/64 19/30/65
f 36/60/16 35/59/18 19/30/65 18/29/66
f 37/61/14 36/60/16 18/29/66 17/28/67
f 38/62/12 37/61/14 17/28/67 16/27/68
f 39/63/10 38/62/12 16/27/68 15/26/69
f 40/64/8 39/63/10 15/26/69 14/25/70
f 41/65/6 40/64/8 14/25/70 13/24/71
f 42/66/3 41/65/6 13/24/71 12/23/72
f 33/57/4 42/66/3 12/23/72 11/22/63
f 23/46/46 24/47/45 44/69/2 43/68/1
f 24/47/45 25/48/48 45/70/5 44/69/2
f 25/48/48 26/49/50 46/71/7 45/70/5
f 26/49/50 27/50/52 47/72/9 46/71/7
f 27/50/52 28/51/54 48/73/11 47/72/9
f 28/51/54 29/52/56 49/74/13 48/73/11
f 29/52/56 30/53/58 50/75/15 49/74/13
f 30/53/58 31/54/60 51/76/17 50/75/15
f 31/54/60 32/55/62 52/77/19 51/76/17
f 32/55/62 23/45/46 43/67/1 52/77/19
