# This file uses centimeters as units for non-parametric coordinates.

mtllib cereal_04.mtl
g default
v -0.088517 0.039598 0.214455
v 0.088517 0.039598 0.214455
v -0.088517 0.635310 0.214455
v 0.088517 0.635310 0.214455
v -0.088517 0.635310 -0.214455
v 0.088517 0.635310 -0.214455
v -0.088517 0.039598 -0.214455
v 0.088517 0.039598 -0.214455
v -0.068113 0.337454 0.190846
v 0.068113 0.337454 0.190846
v 0.068113 0.337454 -0.190846
v -0.068113 0.337454 -0.190846
v -0.066999 0.615211 0.000000
v 0.066999 0.615211 0.000000
v 0.059538 0.337454 0.000000
v 0.066999 0.039598 0.000000
v -0.066999 0.039598 0.000000
v -0.059538 0.337454 0.000000
v 0.076649 0.620244 -0.107227
v -0.076649 0.620244 -0.107227
v -0.076649 0.620244 0.107227
v 0.076649 0.620244 0.107227
v -0.076649 0.486382 -0.183556
v 0.076649 0.486382 -0.183556
v 0.076649 0.486382 0.217193
v -0.076649 0.486382 0.217193
v -0.076649 0.188526 0.212574
v 0.076649 0.188526 0.212574
v 0.076649 0.188526 -0.188175
v -0.076649 0.188526 -0.188175
vt 0.257731 0.132289
vt 0.325979 0.132837
vt 0.255724 0.382006
vt 0.325760 0.383041
vt 0.075928 0.380394
vt 0.080539 0.451717
vt 0.082986 0.128528
vt 0.011578 0.134455
vt 0.257947 0.059179
vt 0.499329 0.135824
vt 0.500740 0.378754
vt 0.253229 0.258362
vt 0.323517 0.257615
vt 0.026090 0.253277
vt 0.486892 0.257302
vt 0.089476 0.254830
vt 0.165540 0.375214
vt 0.165463 0.439599
vt 0.411701 0.372192
vt 0.406075 0.257730
vt 0.171271 0.066706
vt 0.411133 0.135816
vt 0.170239 0.131347
vt 0.169379 0.257111
vt 0.123959 0.441614
vt 0.455822 0.373463
vt 0.119993 0.376693
vt 0.210654 0.377843
vt 0.206986 0.441569
vt 0.368240 0.374856
vt 0.088292 0.318113
vt 0.023638 0.311211
vt 0.485320 0.317769
vt 0.319665 0.321106
vt 0.257399 0.321122
vt 0.258108 0.194585
vt 0.320618 0.195065
vt 0.024388 0.195305
vt 0.486633 0.197176
vt 0.089293 0.191644
vt 0.249563 0.451515
vt 0.007453 0.368858
vt 0.086018 0.056475
vn 0.000000 -0.015490 0.999880
vn 0.000000 -0.015490 0.999880
vn 0.000000 -0.068509 0.997650
vn 0.000000 -0.068509 0.997650
vn 0.000000 1.000000 0.000000
vn 0.000000 1.000000 0.000000
vn 0.000000 0.995048 0.099399
vn 0.000000 0.995048 0.099399
vn 0.000000 -0.092737 -0.995691
vn 0.000000 -0.092737 -0.995691
vn 0.000000 0.015504 -0.999880
vn 0.000000 0.015504 -0.999880
vn 0.000000 0.071842 0.997416
vn 0.000000 0.071842 0.997416
vn 0.000000 0.089436 -0.995992
vn 0.000000 0.089436 -0.995992
vn 0.000000 0.995048 -0.099399
vn 0.000000 0.995048 -0.099399
vn 0.000000 -1.000000 0.000000
vn 0.000000 -1.000000 0.000000
vn 0.000000 -1.000000 0.000000
vn 0.000000 -1.000000 0.000000
vn 0.999949 0.009984 -0.001676
vn 0.996179 0.040447 0.077403
vn 0.998992 -0.000107 0.044888
vn 0.996509 -0.045707 0.069867
vn 0.000000 0.990273 0.139137
vn 0.000000 0.990273 0.139137
vn -0.998992 -0.000107 0.044888
vn -0.999949 0.009984 -0.001676
vn -0.996509 -0.045708 0.069867
vn -0.996179 0.040447 0.077403
vn 0.000000 0.990273 -0.139137
vn 0.000000 0.990273 -0.139137
vn 0.998992 0.000261 -0.044888
vn 0.996861 -0.051326 -0.060282
vn 0.996439 0.043565 -0.072186
vn 0.000000 -1.000000 -0.000000
vn 0.000000 -1.000000 -0.000000
vn -0.996439 0.043565 -0.072186
vn -0.998992 0.000261 -0.044888
vn -0.996861 -0.051325 -0.060282
vn 0.000000 -0.203145 -0.979149
vn 0.000000 -0.203145 -0.979149
vn 0.996166 -0.038907 0.078360
vn 0.996254 -0.042837 0.075125
vn 0.999640 -0.026850 0.000000
vn 0.996584 -0.046370 -0.068334
vn 0.996681 -0.051676 -0.062906
vn 0.000000 0.018381 0.999831
vn 0.000000 0.018381 0.999831
vn -0.996584 -0.046370 -0.068334
vn -0.996681 -0.051676 -0.062906
vn -0.999640 -0.026850 0.000000
vn -0.996166 -0.038907 0.078360
vn -0.996254 -0.042837 0.075125
vn 0.000000 0.012627 0.999920
vn 0.000000 0.012627 0.999920
vn 0.996250 0.042783 -0.075199
vn 0.999169 0.040755 0.000000
vn 0.995947 0.038299 0.081385
vn 0.000000 0.173773 -0.984786
vn 0.000000 0.173773 -0.984786
vn -0.995947 0.038299 0.081385
vn -0.999169 0.040755 0.000000
vn -0.996250 0.042783 -0.075199
s 1
g Cereal_04 cereal_boxes
usemtl initialShadingGroup
f 9/12/1 10/13/2 25/34/3 26/35/4
s 2
f 13/17/5 14/18/6 19/25/7 20/27/8
s 3
f 23/31/9 24/32/10 11/14/11 12/16/12
s 1
f 27/36/13 28/37/14 10/13/2 9/12/1
s 3
f 12/16/12 11/14/11 29/38/15 30/40/16
s 2
f 21/28/17 22/29/18 14/18/6 13/17/5
s 4
f 7/7/19 8/43/20 16/21/21 17/23/22
s 5
f 15/20/23 29/39/24 11/15/25
f 24/33/26 15/20/23 11/15/25
s 2
f 20/27/8 19/25/7 6/6/27 5/5/28
s 6
f 12/16/29 18/24/30 23/31/31
f 30/40/32 18/24/30 12/16/29
s 2
f 3/3/33 4/41/34 22/29/18 21/28/17
s 5
f 10/13/35 15/20/23 25/34/36
f 28/37/37 15/20/23 10/13/35
s 4
f 17/23/22 16/21/21 2/9/38 1/1/39
s 6
f 18/24/30 27/36/40 9/12/41
f 26/35/42 18/24/30 9/12/41
s 3
f 5/5/43 6/42/44 24/32/10 23/31/9
s 5
f 19/26/45 15/20/23 24/33/26 6/11/46
f 14/19/47 15/20/23 19/26/45
f 22/30/48 15/20/23 14/19/47
f 25/34/36 15/20/23 22/30/48 4/4/49
s 1
f 26/35/4 25/34/3 4/4/50 3/3/51
s 6
f 21/28/52 18/24/30 26/35/42 3/3/53
f 13/17/54 18/24/30 21/28/52
f 20/27/55 18/24/30 13/17/54
f 23/31/31 18/24/30 20/27/55 5/5/56
s 1
f 1/1/57 2/2/58 28/37/14 27/36/13
s 5
f 2/2/59 16/22/60 15/20/23 28/37/37
f 29/39/24 15/20/23 16/22/60 8/10/61
s 3
f 30/40/16 29/38/15 8/8/62 7/7/63
s 6
f 7/7/64 17/23/65 18/24/30 30/40/32
f 27/36/40 18/24/30 17/23/65 1/1/66
